<mxfile host="app.diagrams.net" agent="Mozilla/5.0 (Windows NT 10.0; Win64; x64) AppleWebKit/537.36 (KHTML, like Gecko) Chrome/131.0.0.0 Safari/537.36" version="24.8.6">
  <diagram name="페이지-1" id="UsGboInLYVnVaXovdFpq">
    <mxGraphModel dx="1434" dy="738" grid="1" gridSize="10" guides="1" tooltips="1" connect="1" arrows="1" fold="1" page="1" pageScale="1" pageWidth="827" pageHeight="1169" math="0" shadow="0">
      <root>
        <mxCell id="0" />
        <mxCell id="1" parent="0" />
        <mxCell id="8iZxwudRF5Nwll9LdUtv-3" value="&lt;b&gt;&lt;font style=&quot;font-size: 13px;&quot;&gt;NginX&lt;/font&gt;&lt;/b&gt;&lt;br&gt;(Reverse Proxy)" style="whiteSpace=wrap;html=1;aspect=fixed;" parent="1" vertex="1">
          <mxGeometry x="390" y="300" width="90" height="90" as="geometry" />
        </mxCell>
        <mxCell id="8iZxwudRF5Nwll9LdUtv-5" value="&lt;font style=&quot;font-size: 13px;&quot;&gt;&lt;b&gt;PHP-FHM&lt;br&gt;&lt;/b&gt;&lt;/font&gt;(PHP)" style="whiteSpace=wrap;html=1;aspect=fixed;" parent="1" vertex="1">
          <mxGeometry x="394.5" y="450" width="80" height="80" as="geometry" />
        </mxCell>
        <mxCell id="8iZxwudRF5Nwll9LdUtv-7" value="&lt;b&gt;&lt;font style=&quot;font-size: 13px;&quot;&gt;MySQL&lt;/font&gt;&lt;/b&gt;&lt;br&gt;(DB)" style="whiteSpace=wrap;html=1;aspect=fixed;" parent="1" vertex="1">
          <mxGeometry x="394.5" y="590" width="80" height="80" as="geometry" />
        </mxCell>
        <mxCell id="8iZxwudRF5Nwll9LdUtv-9" value="&lt;b&gt;&lt;font style=&quot;font-size: 13px;&quot;&gt;WordPress&lt;/font&gt;&lt;/b&gt;" style="whiteSpace=wrap;html=1;aspect=fixed;" parent="1" vertex="1">
          <mxGeometry x="395" y="730" width="80" height="80" as="geometry" />
        </mxCell>
        <mxCell id="86r-rkyt3wdCB-8Z5Bjp-5" value="" style="shape=flexArrow;endArrow=classic;html=1;rounded=0;" edge="1" parent="1">
          <mxGeometry width="50" height="50" relative="1" as="geometry">
            <mxPoint x="434.28" y="395" as="sourcePoint" />
            <mxPoint x="434.41999999999996" y="445" as="targetPoint" />
          </mxGeometry>
        </mxCell>
        <mxCell id="86r-rkyt3wdCB-8Z5Bjp-6" value="" style="shape=flexArrow;endArrow=classic;html=1;rounded=0;" edge="1" parent="1">
          <mxGeometry width="50" height="50" relative="1" as="geometry">
            <mxPoint x="434.59999999999997" y="536" as="sourcePoint" />
            <mxPoint x="434.73999999999995" y="586" as="targetPoint" />
          </mxGeometry>
        </mxCell>
        <mxCell id="86r-rkyt3wdCB-8Z5Bjp-7" value="" style="shape=flexArrow;endArrow=classic;html=1;rounded=0;" edge="1" parent="1">
          <mxGeometry width="50" height="50" relative="1" as="geometry">
            <mxPoint x="434.59999999999997" y="675" as="sourcePoint" />
            <mxPoint x="434.73999999999995" y="725" as="targetPoint" />
          </mxGeometry>
        </mxCell>
        <mxCell id="86r-rkyt3wdCB-8Z5Bjp-8" value="" style="shape=flexArrow;endArrow=classic;html=1;rounded=0;" edge="1" parent="1">
          <mxGeometry width="50" height="50" relative="1" as="geometry">
            <mxPoint x="310" y="344.68" as="sourcePoint" />
            <mxPoint x="370" y="344.68" as="targetPoint" />
          </mxGeometry>
        </mxCell>
        <mxCell id="86r-rkyt3wdCB-8Z5Bjp-9" value="" style="group" vertex="1" connectable="0" parent="1">
          <mxGeometry x="240" y="300" width="55" height="105" as="geometry" />
        </mxCell>
        <mxCell id="86r-rkyt3wdCB-8Z5Bjp-1" value="" style="shape=actor;whiteSpace=wrap;html=1;" vertex="1" parent="86r-rkyt3wdCB-8Z5Bjp-9">
          <mxGeometry width="55" height="80" as="geometry" />
        </mxCell>
        <mxCell id="86r-rkyt3wdCB-8Z5Bjp-4" value="&lt;font style=&quot;font-size: 13px;&quot;&gt;&lt;b&gt;Client&lt;/b&gt;&lt;/font&gt;" style="rounded=1;whiteSpace=wrap;html=1;" vertex="1" parent="86r-rkyt3wdCB-8Z5Bjp-9">
          <mxGeometry x="2.5" y="85" width="50" height="20" as="geometry" />
        </mxCell>
      </root>
    </mxGraphModel>
  </diagram>
</mxfile>
